PathFileType  4	(X/Y/Z) C:\Users\antoi\Documents\MyRepositories\mobilecap\ResultsAnalysis
DataRate	CameraRate	NumFrames	NumMarkers	Units	OrigDataRate	OrigDataStartFrame	OrigNumFrames
100.0	100.0	7	51	mm	100.0	105	139
Frame#	Time	r_knee			r_shank_antsup			r_ankle			r_calc			r_5meta			r_toe			L_knee			L_shank_antsup			L_ankle			L_calc			L_5meta			L_toe			r_sh2			r_sh3			r_sh4			L_sh2			L_sh3			r_thigh1			r_thigh2			r_thigh3			r_thigh4			r_thigh5			L_thigh1			L_thigh2			L_thigh3			L_thigh4			r.ASIS			r.PSIS			L.ASIS			L.PSIS			C7			R_Shoulder			L_Shoulder			R_Sternum			L_Sternum			R_humerus			R_elbow_med			R_elbow_lat			R_forearm			R_wrist_radius			R_wrist_ulna			L_humerus			L_elbow_med			L_elbow_lat			L_forearm			L_wrist_radius			L_wrist_ulna			R_HJC			L_HJC			R_HJC_reg			L_HJC_reg			
		X1	Y1	Z1	X2	Y2	Z2	X3	Y3	Z3	X4	Y4	Z4	X5	Y5	Z5	X6	Y6	Z6	X7	Y7	Z7	X8	Y8	Z8	X9	Y9	Z9	X10	Y10	Z10	X11	Y11	Z11	X12	Y12	Z12	X13	Y13	Z13	X14	Y14	Z14	X15	Y15	Z15	X16	Y16	Z16	X17	Y17	Z17	X18	Y18	Z18	X19	Y19	Z19	X20	Y20	Z20	X21	Y21	Z21	X22	Y22	Z22	X23	Y23	Z23	X24	Y24	Z24	X25	Y25	Z25	X26	Y26	Z26	X27	Y27	Z27	X28	Y28	Z28	X29	Y29	Z29	X30	Y30	Z30	X31	Y31	Z31	X32	Y32	Z32	X33	Y33	Z33	X34	Y34	Z34	X35	Y35	Z35	X36	Y36	Z36	X37	Y37	Z37	X38	Y38	Z38	X39	Y39	Z39	X40	Y40	Z40	X41	Y41	Z41	X42	Y42	Z42	X43	Y43	Z43	X44	Y44	Z44	X45	Y45	Z45	X46	Y46	Z46	X47	Y47	Z47	X48	Y48	Z48	X49	Y49	Z49	X50	Y50	Z50	X51	Y51	Z51	

105	1.04000000	1224.57328	542.42167	-60.51340	1266.48800	474.75726	-49.11850	1327.75898	116.25146	-76.85636	1286.13992	54.65857	-126.95647	1484.20341	82.02447	-38.16713	1511.62077	121.90427	-93.18439	974.03052	526.07396	-320.61572	978.04393	401.01211	-319.75856	849.24385	96.88113	-275.72267	774.26326	56.52927	-241.10409	1018.56015	57.00897	-233.55099	1002.58472	30.64703	-300.91721	1297.70519	366.52464	-41.95850	1194.53211	454.49815	-33.99721	1217.90356	341.92547	-39.08420	893.38671	429.01823	-342.40745	866.81901	311.05895	-333.48939	1176.79131	858.34265	-27.95061	1225.64835	761.51236	-44.69156	1188.44086	712.81165	-13.67934	1076.74620	804.73640	-21.10270	1133.04391	704.65950	-24.78592	1093.53872	837.83765	-367.22981	1083.72825	702.68645	-349.09638	974.74315	847.02322	-370.06872	973.30100	704.14174	-356.94226	1145.63587	1034.92786	-78.44132	948.90447	1076.65038	-139.80073	1133.06925	1030.09711	-337.11733	941.45970	1083.71623	-243.07750	951.71398	1583.71518	-221.02266	1006.65971	1539.18643	-40.10679	1034.22784	1546.03853	-377.26916	1100.04129	1512.65068	-178.78056	1104.92393	1510.15497	-232.12061	964.61987	1273.94690	59.28866	920.42917	1181.80721	-10.16094	935.19606	1192.73068	73.31674	983.64727	1041.63202	100.20741	1011.15448	928.08059	97.73210	970.14869	935.10729	115.83861	1117.30315	1308.91284	-479.74181	1095.90831	1196.06596	-438.64986	1130.99641	1219.27206	-496.50771	1274.63252	1119.11112	-488.18049	1355.91895	1066.53947	-462.46934	1335.40427	1040.04533	-484.58739	1058.95806	957.69526	-77.62359	1045.59945	957.38658	-307.60137	1072.24047	950.17539	-115.34004	1059.97518	961.81533	-285.45318	
106	1.05000000	1231.86938	537.68917	-59.28064	1276.76287	472.53855	-48.62665	1357.17133	117.15753	-77.86759	1318.81686	53.40563	-127.81659	1514.97737	91.25866	-38.29230	1540.19797	132.29110	-93.07204	981.83474	524.74190	-320.38723	983.96019	399.38310	-319.39215	849.72715	97.61555	-275.32531	774.42572	56.94644	-240.90700	1018.62709	56.81961	-233.41490	1002.63557	30.62454	-300.97384	1313.51103	365.94319	-41.74862	1206.01935	448.47487	-33.30153	1235.18423	337.31738	-39.04035	899.63538	428.89008	-341.77377	871.24357	311.29231	-333.24714	1187.66095	853.96255	-27.70750	1234.68846	756.04711	-44.12804	1196.83700	708.15497	-12.33917	1086.61239	802.16650	-20.54548	1141.01117	700.75465	-23.80431	1103.59556	835.69872	-367.42799	1092.87844	700.61423	-349.42850	984.84863	845.78637	-369.47832	982.39931	702.89371	-356.56015	1159.08148	1032.22771	-78.40792	962.13398	1074.48255	-138.89473	1145.08880	1027.67247	-337.14920	954.11139	1081.72702	-242.06630	964.20278	1581.53219	-219.79664	1019.75201	1536.68786	-38.99894	1046.36120	1543.98718	-376.34118	1112.81730	1510.56347	-178.03564	1117.50625	1508.14323	-231.42485	976.33458	1271.49678	60.04101	931.60647	1180.21389	-9.58284	946.46450	1190.53321	73.68064	992.53095	1038.85764	101.03581	1018.10855	924.78146	98.84898	977.22023	932.60650	116.91874	1129.64609	1307.42384	-479.20637	1109.16275	1194.33130	-438.13267	1143.88466	1217.72730	-496.01901	1289.09252	1119.65796	-487.12274	1371.11768	1068.58008	-460.75690	1351.10905	1041.62690	-482.80044	1072.16228	955.21866	-77.32172	1057.62928	955.15869	-307.22553	1085.32730	947.56561	-115.04034	1072.09731	959.51192	-285.15204	
107	1.06000000	1239.77329	533.40591	-58.05866	1287.22255	470.60869	-48.16499	1383.78368	118.40537	-78.79619	1348.34801	52.61149	-128.28152	1542.64754	100.30334	-38.82591	1565.53173	142.17435	-93.50842	990.06060	523.29981	-320.07108	990.31671	397.65874	-319.08622	850.40364	98.45433	-275.03563	774.60049	57.54426	-240.72708	1018.69567	56.61900	-233.25348	1002.69991	30.58713	-301.02747	1328.63602	365.57804	-41.50261	1217.71914	443.34338	-32.39624	1251.70308	333.59211	-38.66624	906.37138	428.73386	-341.16752	875.98020	311.58995	-333.03768	1198.64107	849.90946	-27.49316	1244.04878	751.02997	-43.45388	1205.73619	703.97357	-10.88652	1096.73176	799.72280	-19.83772	1149.56893	697.15462	-22.59535	1113.93506	833.55157	-367.55528	1102.43231	698.49832	-349.79143	995.22377	844.42576	-368.79314	991.89365	701.53741	-356.17983	1172.64523	1029.47759	-78.39202	975.42321	1072.30368	-137.89458	1157.13733	1025.21613	-337.20223	966.85561	1079.64452	-240.98182	976.74063	1579.37139	-218.45821	1032.90922	1534.15127	-37.79849	1058.61281	1541.89528	-375.35494	1125.69238	1508.50323	-177.20708	1130.16653	1506.13985	-230.64916	988.29732	1268.96643	60.81457	943.00092	1178.58598	-8.92852	958.01849	1188.24511	74.10917	1001.80164	1036.08138	101.90132	1025.53727	921.53883	99.99352	984.76338	930.08966	118.01229	1141.88149	1305.83159	-478.59440	1122.17802	1192.50587	-437.55659	1156.56854	1216.07612	-495.45306	1303.22056	1119.95770	-486.03042	1385.87923	1070.27401	-458.98056	1366.36699	1042.90756	-480.97539	1085.49460	952.69836	-76.99372	1069.69882	952.88335	-306.81273	1098.42648	945.01538	-114.70684	1084.28602	957.13193	-284.83700	
108	1.07000000	1248.66277	529.77633	-56.95023	1298.14668	468.96424	-47.75814	1407.14106	119.50715	-79.46142	1374.05311	51.84067	-128.15788	1566.85792	108.21025	-39.82878	1587.37627	150.58945	-94.60392	998.73852	521.75166	-319.63708	997.22340	395.89846	-318.86041	851.27701	99.44351	-274.87230	774.81392	58.45291	-240.59039	1018.79089	56.39916	-233.09838	1002.78746	30.53222	-301.09243	1343.16478	365.26494	-41.23448	1229.76543	439.26460	-31.30704	1267.39817	330.72390	-37.93919	913.63832	428.58574	-340.63715	881.06198	311.98638	-332.86979	1209.87933	846.39306	-27.32377	1253.98883	746.74115	-42.79928	1215.45432	700.45137	-9.46670	1107.33478	797.50529	-18.99993	1159.02273	694.04808	-21.29530	1124.62117	831.41974	-367.55534	1112.46817	696.36374	-350.10433	1005.92315	842.96047	-368.03669	1001.86018	700.08589	-355.78471	1186.28361	1026.78171	-78.35184	988.70305	1070.18222	-136.81666	1169.23843	1022.76970	-337.23202	979.65956	1077.49960	-239.84914	989.34985	1577.28653	-217.01434	1046.12055	1531.62478	-36.51093	1070.97110	1539.82924	-374.31667	1138.65180	1506.50935	-176.29734	1142.91043	1504.19384	-229.78976	1000.52586	1266.40103	61.58845	954.68000	1176.87200	-8.25572	969.86644	1185.91140	74.59769	1011.47499	1033.34259	102.80100	1033.46757	918.38466	101.16375	992.80773	927.59510	119.10882	1154.02023	1304.17412	-477.89375	1134.96350	1190.62534	-436.90847	1169.05746	1214.36595	-494.79938	1317.01417	1120.03058	-484.89092	1400.18768	1071.60973	-457.15473	1381.16005	1043.88779	-479.13018	1098.90899	950.22861	-76.59942	1081.82478	950.59528	-306.32726	1111.49724	942.62720	-114.29274	1096.56122	954.71488	-284.46653	
109	1.08000000	1258.85854	526.94475	-56.03787	1309.76697	467.54897	-47.42619	1426.88166	120.00096	-79.76670	1395.36603	50.72363	-127.39215	1587.33831	114.04946	-41.29502	1605.61231	156.61027	-96.36169	1007.91423	520.11429	-319.08842	1004.79151	394.19576	-318.71666	852.33969	100.64454	-274.83420	775.10935	59.81746	-240.52454	1018.92833	56.16062	-232.97344	1002.90879	30.45576	-301.18165	1357.17279	364.81203	-40.98511	1242.25291	436.30916	-30.08441	1282.23314	328.62283	-36.89480	921.44449	428.48631	-340.19696	886.51301	312.52136	-332.74754	1221.55187	843.59640	-27.20127	1264.77239	743.41171	-42.26533	1226.27025	697.73201	-8.21773	1118.65562	795.61326	-18.08919	1169.64552	691.61238	-20.02218	1135.70004	829.33183	-367.37756	1123.04283	694.24448	-350.28149	1016.98900	841.42220	-367.25228	1012.36137	698.55599	-355.35373	1199.93831	1024.26071	-78.22577	1001.92559	1068.17336	-135.69830	1181.42772	1020.37883	-337.18038	992.49465	1075.32679	-238.70469	1002.05977	1575.32659	-215.47973	1059.37932	1529.15965	-35.14818	1083.41277	1537.86598	-373.22781	1151.68144	1504.61432	-175.31030	1155.74742	1502.35168	-228.84689	1013.02001	1263.85749	62.35626	966.70563	1175.04790	-7.61282	982.01221	1183.58424	75.13562	1021.56861	1030.68527	103.72891	1041.92709	915.35688	102.35316	1001.38424	925.16925	120.20049	1166.06756	1302.49434	-477.08847	1147.52250	1188.73196	-436.16838	1181.35608	1212.64524	-494.04684	1330.45958	1119.89553	-483.68685	1414.03310	1072.58258	-455.29357	1395.46832	1044.56884	-477.28306	1112.35730	947.91057	-76.09393	1094.04719	948.32940	-305.73102	1124.53076	940.48333	-113.73786	1108.94550	952.30869	-283.98465	
110	1.09000000	1270.51301	524.94926	-55.37823	1322.18402	466.26868	-47.19577	1442.83240	119.54989	-79.72181	1411.99129	49.04988	-126.09481	1603.98591	117.09894	-43.14696	1620.31747	159.54574	-98.66580	1017.65261	518.41713	-318.46648	1013.09030	392.65468	-318.62952	853.59263	102.12582	-274.90551	775.54468	61.77459	-240.54975	1019.09962	55.90621	-232.88897	1003.07018	30.35304	-301.30245	1370.70016	364.04308	-40.82742	1255.19613	434.42608	-28.79950	1296.19645	327.14048	-35.61944	929.78178	428.47533	-339.83738	892.35226	313.23993	-332.66821	1233.84788	841.63379	-27.11025	1276.62208	741.16698	-41.90567	1238.36367	695.88439	-7.25592	1130.88993	794.13127	-17.17900	1181.62058	689.96047	-18.87045	1147.19948	827.31779	-366.98745	1134.18749	692.18059	-350.25099	1028.44702	839.84495	-366.48191	1023.43894	696.96686	-354.86414	1213.56858	1022.04386	-77.94344	1015.08290	1066.31203	-134.59067	1193.75138	1018.08784	-336.98937	1005.35176	1073.16482	-237.58797	1014.89471	1573.52992	-213.87377	1072.68568	1526.80844	-33.72679	1095.91495	1536.07950	-372.08548	1164.77136	1502.84311	-174.25066	1168.68635	1500.65018	-227.82422	1025.76476	1261.39676	63.12244	979.11571	1173.14070	-7.02258	994.44977	1181.31992	75.70922	1032.09930	1028.15602	104.67771	1050.94620	912.49968	103.55455	1010.52339	922.86212	121.28245	1178.02325	1300.83862	-476.16393	1159.84856	1186.87530	-435.31206	1193.46132	1210.95849	-493.18515	1343.53224	1119.56880	-482.40266	1427.40873	1073.19567	-453.41167	1409.27136	1044.95355	-475.44949	1125.81665	945.84531	-75.43370	1106.43222	946.11756	-304.98747	1137.57033	938.62879	-112.98347	1121.47790	949.96541	-283.33749	
111	1.10000000	1283.52374	523.69796	-54.99500	1335.30859	465.01620	-47.09841	1455.10279	118.02992	-79.43656	1424.03791	46.83126	-124.51626	1616.94286	117.02660	-45.25113	1631.81587	159.12483	-101.30719	1028.02653	516.70064	-317.83609	1022.08520	391.35461	-318.54733	855.05571	103.95734	-275.06275	776.18435	64.43892	-240.67015	1019.26760	55.63081	-232.84635	1003.26959	30.22031	-301.45402	1383.73355	362.84073	-40.85460	1268.49556	433.43515	-27.53570	1309.29156	326.08737	-34.23627	938.64642	428.59133	-339.54150	898.59912	314.19317	-332.62122	1246.93973	840.51244	-27.01595	1289.66543	739.98095	-41.72220	1251.75597	694.86589	-6.67188	1144.15252	793.11673	-16.33578	1194.97829	689.09825	-17.92674	1159.13039	825.40584	-366.37565	1145.90895	690.21378	-349.97335	1040.30788	838.25550	-365.74364	1035.10913	695.34157	-354.29261	1227.18018	1020.25582	-77.44445	1028.21606	1064.61343	-133.54422	1206.26548	1015.93627	-336.61664	1018.25220	1071.05592	-236.52954	1027.86166	1571.92133	-212.21572	1086.04603	1524.62249	-32.26403	1108.46917	1534.52686	-370.88436	1177.91726	1501.21413	-173.12351	1181.72863	1499.11216	-226.72695	1038.73653	1259.07645	63.89682	991.91850	1171.22143	-6.47889	1007.16203	1179.17379	76.30588	1043.08031	1025.80087	105.63929	1060.56068	909.86089	104.76223	1020.25539	920.72170	122.35052	1189.88211	1299.25311	-475.11154	1171.92553	1185.11055	-434.31628	1205.36232	1209.34290	-492.20737	1356.20251	1119.06431	-481.03055	1440.30526	1073.45723	-451.52418	1422.54753	1045.04583	-473.64007	1139.31247	944.12502	-74.58409	1119.06764	943.98821	-304.06668	1150.71702	937.06978	-111.98889	1134.22310	947.73724	-282.48919	
